{"title":"Centurion.2010.DvDRip.AC3-FxM","uid":5754860,"size":733399995,"categoryP":"video","categoryS":"movies","magnet":"?xt=urn:btih:0d7b4b6f772d3953d7805b26a62d4e4cc0ed720e&amp;dn=Centurion.2010.DvDRip.AC3-FxM&amp;tr=udp%3A%2F%2Ftracker.openbittorrent.com%3A80&amp;tr=udp%3A%2F%2Fopen.demonii.com%3A1337&amp;tr=udp%3A%2F%2Ftracker.coppersurfer.tk%3A6969&amp;tr=udp%3A%2F%2Fexodus.desync.com%3A6969","seeders":0,"leechers":0,"uploader":"hiest","files":-1,"time":1281533070,"description":" \nBritain, A.D. 117. Quintus Dias, the sole survivor of a Pictish raid on a Roman frontier fort, marches north with General Virilus' legendary Ninth Legion, under orders to wipe the Picts from the face of the Earth and destroy their leader, Gorlacon. Written by Anonymous \n\nAD 117. The Roman Empire stretches from Egypt to Spain, and East as far as the Black Sea. But in northern Britain, the relentless onslaught of conquest has ground to a halt in face of the guerrilla tactics of an elusive enemy: the savage and terrifying Picts. Quintus Dias (Fassbender), sole survivor of a Pictish raid on a Roman frontier fort, marches north with General Virilus' (West) legendary Ninth Legion, under orders to wipe the Picts from the face of the earth and destroy their leader Gorlacon. But when the legion is ambushed on unfamiliar ground, and Virilus taken captive, Quintus faces a desperate struggle to keep his small platoon alive behind enemy lines. Enduring the harsh terrain and evading their remorseless Pict pursuers led by revenge-hungry Pict Warrior Etain (Kurylenko), the band of soldiers race to rescue their General and to reach the safety of the Roman frontier.\n\n\n\n  &lt;a href=&quot;\nhttp://www.imdb.com/title/tt1020558/&quot; rel=&quot;nofollow&quot; target=&quot;_NEW&quot;&gt;\nhttp://www.imdb.com/title/tt1020558/&lt;/a&gt;\nGenre:Action | Adventure | Drama | History | Thriller | War\n\n\n \nVideo\nID : 0\nFormat : MPEG-4 Visual\nFormat profile : Advanced Simple@L5\nFormat settings, BVOP : Yes\nFormat settings, QPel : No\nFormat settings, GMC : No warppoints\nFormat settings, Matrix : Default (H.263)\nMuxing mode : Packed bitstream\nCodec ID : XVID\nCodec ID/Hint : XviD\nDuration : 1h 33mn\nBit rate : 910 Kbps\nWidth : 640 pixels\nHeight : 272 pixels\nDisplay aspect ratio : 2.35:1\nFrame rate : 25.000 fps\nResolution : 8 bits\nColorimetry : 4:2:0\nScan type : Progressive\nBits/(Pixel*Frame) : 0.209\nStream size : 609 MiB (87%)\nWriting library : XviD 1.2.1 (UTC 2008-12-04)\n\nAudio\nID : 1\nFormat : AC-3\nFormat/Info : Audio Coding 3\nCodec ID : 2000\nDuration : 1h 33mn\nBit rate mode : Constant\nBit rate : 128 Kbps\nChannel(s) : 2 channels\nChannel positions : L R\nSampling rate : 48.0 KHz\nStream size : 85.6 MiB (12%)\nAlignment : Split accross interleaves\nInterleave, duration : 64 ms (1.60 video frames)\nInterleave, preload duration : 500 ms\n\n\n\n\nScreenshots:\n &lt;a href=&quot;\nhttp://postimg.com/image/20000/19558.jpg&quot; rel=&quot;nofollow&quot; target=&quot;_NEW&quot;&gt;\nhttp://postimg.com/image/20000/19558.jpg&lt;/a&gt;","torrent":{"xt":"urn:btih:0d7b4b6f772d3953d7805b26a62d4e4cc0ed720e","amp;dn":"Centurion.2010.DvDRip.AC3-FxM","amp;tr":["udp%3A%2F%2Ftracker.openbittorrent.com%3A80","udp%3A%2F%2Fopen.demonii.com%3A1337","udp%3A%2F%2Ftracker.coppersurfer.tk%3A6969","udp%3A%2F%2Fexodus.desync.com%3A6969"],"infoHash":"0d7b4b6f772d3953d7805b26a62d4e4cc0ed720e","infoHashBuffer":{"type":"Buffer","data":[13,123,75,111,119,45,57,83,215,128,91,38,166,45,78,76,192,237,114,14]},"announce":[],"urlList":[]}}